<svg width="98" height="98" viewBox="0 0 98 98" fill="none" xmlns="http://www.w3.org/2000/svg">
<path d="M50.5313 49L17.3032 82.2281C25.572 90.0375 36.7501 94.9375 49.0001 94.9375C74.4188 94.9375 94.9376 74.4188 94.9376 49H50.5313Z" fill="#ED4C5C"/>
<path d="M94.9376 49C94.9376 23.5812 74.4188 3.0625 49.0001 3.0625C36.7501 3.0625 25.572 7.9625 17.3032 15.7719L50.5313 49H94.9376Z" fill="#428BC1"/>
<path d="M17.3031 15.772C8.575 24.1938 3.0625 35.9845 3.0625 49.0001C3.0625 62.0157 8.575 73.8063 17.3031 82.2282L50.5312 49.0001L17.3031 15.772Z" fill="#F9F9F9"/>
<path d="M19.9062 20.8251L18.6812 22.9688L20.3655 24.6532L18.0687 24.347L16.8437 26.4907L16.5374 24.1938L14.2405 23.8876L16.3843 22.6626L16.078 20.3657L17.7624 22.0501L19.9062 20.8251ZM20.2124 73.5001L18.528 75.3376L19.753 77.3282L17.6093 76.4095L15.9249 78.247L16.2312 75.797L13.9343 74.8782L16.3843 74.4188L16.6905 71.9688L17.9155 74.1126L20.2124 73.5001ZM46.703 49.0001L44.4062 49.7657V52.0626L42.8749 50.2251L40.578 50.8376L42.1093 49.0001L40.578 47.1626L42.8749 47.7751L44.4062 45.9376V48.2345L46.703 49.0001ZM36.2905 46.7032L35.3718 45.9376L25.4187 48.0813H25.5718L34.9124 45.6313L33.6874 44.8657L25.7249 47.9282L32.3093 42.4157L32.1562 41.0376L25.2655 48.0813H25.1124L32.003 40.4251L31.8499 39.3532L30.778 39.5063L24.653 47.4688V47.3157L30.3187 39.2001L28.9405 39.3532L24.8062 46.8563L26.3374 38.2813L25.4187 37.3626L24.4999 47.3157V47.4688L24.8062 37.0563L24.0405 36.2907L23.2749 37.0563L23.5812 47.4688V47.3157L22.8155 37.5157L21.8968 38.4345L23.428 47.0095L19.2937 39.5063L17.9155 39.3532L23.5812 47.4688V47.622L17.303 39.3532L16.2312 39.2001L16.078 40.272L22.9687 47.9282H22.8155L15.9249 40.8845L15.7718 42.2626L22.3562 47.7751L14.3937 44.7126L13.3218 45.4782L22.6624 47.9282H22.8155L12.7093 45.9376L11.7905 46.5501L12.403 47.4688L22.5093 48.847H22.3562L12.7093 47.9282L13.4749 49.0001L22.0499 48.847L14.0874 52.0626L13.7812 53.4407L22.5093 49.1532H22.6624L13.628 54.0532L13.3218 55.1251L14.3937 55.4313L23.1218 49.9188V50.072L15.1593 55.7376L16.3843 56.0438L22.8155 50.3782L18.3749 57.8813L18.9874 59.1063L22.9687 50.2251L23.1218 50.072L19.2937 59.7188L19.753 60.7907L20.8249 60.3314L24.0405 50.3782V50.5313L21.4374 60.0251L22.6624 59.4126L24.0405 50.8376L25.4187 59.4126L26.6437 60.0251L24.0405 50.5313V50.3782L27.2562 60.3314L28.328 60.7907L28.7874 59.7188L24.9593 50.072L25.1124 50.2251L29.0937 59.1063L29.7062 57.8813L25.4187 50.3782L31.8499 56.0438L33.0749 55.7376L25.1124 50.072V49.9188L33.8405 55.4313L34.9124 55.1251L34.6062 54.0532L25.5718 49.1532H25.7249L34.453 53.4407L33.9937 52.0626L25.878 49.1532L34.453 49.3063L35.2187 48.2345L25.5718 49.1532H25.4187L35.5249 47.7751L36.2905 46.7032Z" fill="#FFCE31"/>
<path d="M24.0405 55.8906C27.8461 55.8906 30.9312 52.8056 30.9312 49C30.9312 45.1944 27.8461 42.1094 24.0405 42.1094C20.2349 42.1094 17.1499 45.1944 17.1499 49C17.1499 52.8056 20.2349 55.8906 24.0405 55.8906Z" fill="#FFCE31"/>
</svg>
