<svg width="98" height="98" viewBox="0 0 98 98" fill="none" xmlns="http://www.w3.org/2000/svg">
<path d="M80.2377 15.3125C71.9689 7.65625 61.0971 3.0625 49.0002 3.0625C36.9033 3.0625 26.0314 7.65625 17.7627 15.3125H80.2377ZM17.7627 82.6875C26.0314 90.3438 36.9033 94.9375 49.0002 94.9375C61.0971 94.9375 71.9689 90.3438 80.2377 82.6875H17.7627Z" fill="#ED4C5C"/>
<path d="M3.0625 49C3.0625 55.5844 4.44062 61.7094 6.89062 67.375H91.1094C93.5594 61.7094 94.9375 55.5844 94.9375 49C94.9375 42.4156 93.5594 36.2906 91.1094 30.625H6.89062C4.44062 36.2906 3.0625 42.4156 3.0625 49Z" fill="#2A5F9E"/>
<path d="M17.7623 82.6875H80.0842C84.6779 78.4 88.5061 73.1937 90.9561 67.375H6.7373C9.49355 73.1937 13.1686 78.4 17.7623 82.6875ZM80.2373 15.3125H17.7623C13.1686 19.6 9.34043 24.8063 6.89043 30.625H91.1092C88.5061 24.8063 84.8311 19.6 80.2373 15.3125Z" fill="#F9F9F9"/>
</svg>
